<svg width="32" height="32" viewBox="0 0 44 44" fill="none" xmlns="http://www.w3.org/2000/svg">
  <path d="M22 2L4 10v12c0 11 8 18 18 20 10-2 18-9 18-20V10L22 2z" 
    fill="url(#sg)" 
    stroke="url(#ss)" 
    strokeWidth="1.5"
  />
  <path d="M22 8L10 14v8c0 7.5 5.5 12 12 13.5 6.5-1.5 12-6 12-13.5v-8L22 8z" 
    fill="#0a0f1a" 
    fillOpacity="0.6"
  />
  <path d="M16 22l4 4 8-8" 
    stroke="#22d3ee" 
    strokeWidth="2.5" 
    strokeLinecap="round" 
    strokeLinejoin="round"
  />
  <circle cx="22" cy="35" r="1" fill="#fbbf24" fillOpacity="0.8" />
  <circle cx="18" cy="34" r="0.8" fill="#fbbf24" fillOpacity="0.6" />
  <circle cx="26" cy="34" r="0.8" fill="#fbbf24" fillOpacity="0.6" />
  <defs>
    <linearGradient id="sg" x1="4" y1="2" x2="40" y2="42" gradientUnits="userSpaceOnUse">
      <stop stopColor="#1e3a8a"/>
      <stop offset="0.5" stopColor="#1e40af"/>
      <stop offset="1" stopColor="#0891b2"/>
    </linearGradient>
    <linearGradient id="ss" x1="4" y1="2" x2="40" y2="42" gradientUnits="userSpaceOnUse">
      <stop stopColor="#3b82f6"/>
      <stop offset="1" stopColor="#22d3ee"/>
    </linearGradient>
  </defs>
</svg>
